<svg xmlns="http://www.w3.org/2000/svg" width="1280" height="640" viewBox="0 0 1280 640" font-family="system-ui, -apple-system, 'Segoe UI', sans-serif">
  <defs>
    <linearGradient id="bg" x1="0" y1="0" x2="1" y2="1">
      <stop offset="0" stop-color="#1B2530"/>
      <stop offset="1" stop-color="#232F3E"/>
    </linearGradient>
  </defs>
  <rect width="1280" height="640" fill="url(#bg)"/>
  <rect width="1280" height="10" fill="#00E0B8"/>
  <!-- AKA logo mark -->
  <g transform="translate(96,205) scale(1.0)" fill="#00E0B8">
    <circle cx="61.07" cy="20.37" r="20.37"/>
    <path d="M0 88.666 A40.746 40.746 0 0 1 81.492 88.666 Z"/>
    <path d="M81.492 88.666 A40.746 40.746 0 0 1 0 88.666 Z" fill-opacity="0.55"/>
    <circle cx="20.42" cy="157.05" r="20.37" fill-opacity="0.55"/>
  </g>
  <!-- Wordmark + subtitle (left column, kept clear of the motif zone) -->
  <text x="286" y="304" font-family="ui-monospace, 'Geist Mono', monospace" font-size="74" font-weight="700" fill="#F6F8F9">flightcrew</text>
  <text x="290" y="360" font-size="31" font-weight="400" fill="#B0C7E2">A second opinion before you merge.</text>
  <g font-family="ui-monospace, 'Geist Mono', monospace">
    <text x="290" y="416" font-size="22"><tspan fill="#7DF8E2">report-only</tspan>  ·  <tspan fill="#A0E7FF">cross-family</tspan>  ·  <tspan fill="#6AD9FF">no writes</tspan></text>
    <text x="290" y="452" font-size="20" fill="#6B7D8F">MIT  ·  needs node  ·  claude / codex / agy</text>
  </g>

  <!-- Signature motif: two blind reads -> independent judge -> verdict -->
  <g font-family="ui-monospace, 'Geist Mono', monospace" font-size="21" fill="#6B7D8F">
    <g stroke-width="3.5" fill="none" opacity="0.5">
      <path d="M1020 253 L1122 320" stroke="#00E0B8"/>
      <path d="M1020 387 L1122 320" stroke="#00E0B8"/>
      <path d="M1144 320 L1196 320" stroke="#8A98FF"/>
    </g>
    <circle cx="1004" cy="253" r="17" fill="none" stroke="#00E0B8" stroke-width="3.5"/><circle cx="1004" cy="253" r="7" fill="#00E0B8"/>
    <circle cx="1004" cy="387" r="17" fill="none" stroke="#00E0B8" stroke-width="3.5"/><circle cx="1004" cy="387" r="7" fill="#00E0B8"/>
    <text x="1004" y="219" text-anchor="middle">recall</text>
    <text x="1004" y="428" text-anchor="middle">precision</text>
    <circle cx="1132" cy="320" r="20" fill="none" stroke="#8A98FF" stroke-width="3.5"/><circle cx="1132" cy="320" r="8.5" fill="#8A98FF"/>
    <text x="1132" y="277" text-anchor="middle" fill="#8A98FF">judge</text>
    <path d="M1216 292 L1244 320 L1216 348 L1188 320 Z" fill="#00E0B8"/>
    <text x="1216" y="384" text-anchor="middle">verdict</text>
  </g>
</svg>
